<svg xmlns="http://www.w3.org/2000/svg" xmlns:xlink="http://www.w3.org/1999/xlink" width="500" zoomAndPan="magnify" viewBox="0 0 375 374.999991" height="500" preserveAspectRatio="xMidYMid meet" version="1.0"><defs><g/></defs><g fill="#000000" fill-opacity="1"><g transform="translate(162.892391, 206.637877)"><g><path d="M 37.132812 -34.417969 C 36.78125 -34.59375 36.394531 -34.453125 36.21875 -34.136719 C 35.828125 -33.394531 35.335938 -32.445312 34.734375 -31.246094 C 31.703125 -25.179688 25.992188 -13.929688 20.382812 -4.265625 C 17.28125 1.09375 14.636719 5.21875 12.449219 8.039062 C 9.097656 12.414062 7.792969 12.519531 7.441406 12.449219 C 7.195312 12.378906 6.382812 11.882812 6.453125 8.003906 C 6.558594 1.164062 11.25 -17.84375 13.257812 -25.992188 C 13.578125 -27.222656 13.824219 -28.246094 14 -28.988281 C 14.8125 -32.445312 14.671875 -34.453125 13.472656 -35.230469 C 12.835938 -35.617188 11.636719 -35.792969 9.628906 -34.207031 C 6.03125 -31.421875 0.386719 -23.238281 2.046875 -18.335938 C 2.539062 -16.855469 3.984375 -15.058594 7.933594 -14.988281 C 8.324219 -14.988281 8.640625 -15.269531 8.640625 -15.65625 C 8.640625 -16.046875 8.324219 -16.328125 7.96875 -16.363281 C 5.429688 -16.398438 3.84375 -17.210938 3.316406 -18.761719 C 2.046875 -22.640625 6.699219 -30.222656 10.472656 -33.148438 C 11.707031 -34.101562 12.484375 -34.242188 12.765625 -34.066406 C 12.835938 -34.03125 13.648438 -33.359375 12.695312 -29.304688 C 12.519531 -28.566406 12.273438 -27.542969 11.953125 -26.308594 C 9.769531 -17.457031 5.183594 0.988281 5.078125 8.003906 C 5.078125 10.226562 5.253906 13.292969 7.125 13.753906 C 7.300781 13.789062 7.441406 13.824219 7.617188 13.824219 C 9.523438 13.824219 12.976562 11.214844 21.582031 -3.597656 C 27.1875 -13.257812 32.902344 -24.542969 35.96875 -30.644531 C 36.570312 -31.808594 37.0625 -32.796875 37.417969 -33.5 C 37.59375 -33.855469 37.453125 -34.242188 37.132812 -34.417969 Z M 37.132812 -34.417969 "/></g></g></g><g fill="#000000" fill-opacity="1"><g transform="translate(194.416845, 206.637877)"><g><path d="M 10.296875 -8.003906 C 9.980469 -8.214844 9.59375 -8.109375 9.378906 -7.792969 C 7.019531 -3.984375 3.066406 -0.386719 1.867188 -0.882812 C 1.726562 -0.953125 0.597656 -1.621094 2.152344 -7.582031 C 2.222656 -7.96875 2.011719 -8.324219 1.65625 -8.429688 C 1.269531 -8.5 0.917969 -8.289062 0.8125 -7.933594 C -0.457031 -2.960938 -0.28125 -0.316406 1.304688 0.351562 C 1.550781 0.457031 1.796875 0.492188 2.046875 0.492188 C 4.691406 0.492188 8.746094 -4.230469 10.542969 -7.089844 C 10.71875 -7.40625 10.613281 -7.828125 10.296875 -8.003906 Z M 1.976562 -10.863281 C 3.773438 -10.753906 3.738281 -13.011719 2.292969 -12.519531 C 1.550781 -12.308594 0.597656 -10.933594 1.976562 -10.863281 Z M 1.976562 -10.863281 "/></g></g></g><g fill="#000000" fill-opacity="1"><g transform="translate(204.92529, 206.637877)"><g><path d="M 15.691406 -8.074219 C 15.410156 -8.324219 14.988281 -8.289062 14.742188 -8.003906 C 11.953125 -4.796875 7.582031 0.316406 6.875 1.234375 C 6.664062 1.480469 6.453125 1.761719 6.242188 2.046875 C 5.960938 1.339844 5.605469 0.671875 5.148438 -0.0351562 C 3.457031 -2.644531 1.941406 -5.113281 2.011719 -6.839844 C 2.082031 -8.214844 2.785156 -9.414062 3.949219 -10.121094 C 4.902344 -10.683594 5.960938 -10.792969 6.769531 -10.402344 C 7.089844 -10.261719 7.511719 -10.402344 7.652344 -10.753906 C 7.828125 -11.074219 7.6875 -11.496094 7.335938 -11.636719 C 6.136719 -12.203125 4.585938 -12.0625 3.246094 -11.285156 C 1.691406 -10.332031 0.777344 -8.746094 0.671875 -6.910156 C 0.5625 -4.761719 2.117188 -2.1875 4.019531 0.707031 C 4.621094 1.621094 5.007812 2.503906 5.253906 3.351562 C 2.503906 7.089844 -0.457031 11.882812 1.058594 13.367188 C 1.304688 13.613281 1.621094 13.71875 1.941406 13.71875 C 2.503906 13.71875 3.136719 13.4375 3.808594 12.90625 C 5.714844 11.320312 7.6875 7.722656 6.734375 3.632812 C 7.125 3.136719 7.511719 2.609375 7.933594 2.082031 C 8.640625 1.199219 13.011719 -3.914062 15.761719 -7.125 C 16.011719 -7.40625 15.976562 -7.828125 15.691406 -8.074219 Z M 4.230469 10.367188 C 3.28125 11.777344 2.328125 12.34375 2.011719 12.378906 C 1.867188 11.882812 2.328125 9.839844 5.605469 5.183594 C 5.75 7.722656 4.691406 9.664062 4.230469 10.367188 Z M 4.230469 10.367188 "/></g></g></g><g fill="#000000" fill-opacity="1"><g transform="translate(220.722999, 206.637877)"><g><path d="M 29.761719 -20.804688 C 29.304688 -21.441406 27.261719 -21.828125 5.359375 -21.335938 C 6.066406 -24.191406 6.699219 -26.765625 7.265625 -28.847656 C 7.371094 -29.234375 7.160156 -29.585938 6.804688 -29.691406 C 6.453125 -29.800781 6.066406 -29.585938 5.960938 -29.234375 C 5.359375 -27.011719 4.691406 -24.332031 3.949219 -21.300781 C 2.011719 -21.265625 -0.105469 -21.230469 -2.398438 -21.160156 C -5.535156 -21.089844 -8.003906 -21.019531 -8.957031 -21.019531 C -9.34375 -21.019531 -9.664062 -20.699219 -9.664062 -20.347656 C -9.664062 -19.960938 -9.34375 -19.644531 -8.957031 -19.644531 C -7.96875 -19.679688 -5.5 -19.714844 -2.363281 -19.820312 C -0.707031 -19.855469 1.339844 -19.890625 3.632812 -19.960938 C 2.117188 -13.542969 0.386719 -5.855469 -1.164062 1.65625 C -2.292969 7.160156 -3.210938 11.917969 -3.808594 15.410156 C -4.125 17.246094 -4.335938 18.691406 -4.445312 19.679688 C -4.585938 21.019531 -4.65625 21.792969 -3.984375 22.039062 C -3.878906 22.039062 -3.808594 22.074219 -3.703125 22.074219 C -3.101562 22.074219 -2.785156 21.230469 -2.503906 20.453125 C -2.363281 20.101562 -2.539062 19.714844 -2.890625 19.570312 C -2.960938 19.570312 -2.996094 19.535156 -3.066406 19.535156 C -2.714844 16.785156 -1.65625 10.613281 0.386719 0.882812 C 1.90625 -6.488281 3.5625 -13.859375 5.042969 -19.996094 C 14.742188 -20.207031 27.332031 -20.382812 28.777344 -19.890625 C 29.023438 -19.679688 29.339844 -19.679688 29.621094 -19.855469 C 29.90625 -20.066406 29.976562 -20.488281 29.761719 -20.804688 Z M 29.761719 -20.804688 "/></g></g></g><g fill="#000000" fill-opacity="1"><g transform="translate(227.000037, 206.637877)"><g><path d="M 14.742188 -7.828125 C 14.421875 -7.96875 14 -7.828125 13.859375 -7.511719 C 11.179688 -2.046875 9.167969 -0.316406 8.214844 -0.492188 C 7.828125 -0.5625 6.558594 -1.304688 6.242188 -7.476562 C 6.242188 -7.757812 6.03125 -8.003906 5.785156 -8.074219 C 5.5 -8.144531 5.183594 -8.074219 5.042969 -7.828125 C 4.832031 -7.582031 4.621094 -7.300781 4.40625 -6.984375 C 3.527344 -5.785156 2.363281 -4.160156 0.953125 -2.644531 C 0.742188 -2.398438 0.5625 -2.257812 0.457031 -2.1875 C 0.210938 -3.421875 1.515625 -8.144531 3.597656 -9.628906 C 4.195312 -10.050781 5.007812 -10.367188 6.101562 -9.097656 C 6.347656 -8.816406 6.769531 -8.78125 7.054688 -9.027344 C 7.335938 -9.238281 7.371094 -9.699219 7.160156 -9.980469 C 5.820312 -11.53125 4.550781 -11.496094 3.703125 -11.214844 C 0.988281 -10.261719 -0.847656 -5.042969 -0.917969 -2.644531 C -0.953125 -1.65625 -0.671875 -1.023438 -0.105469 -0.8125 C 0.777344 -0.457031 1.65625 -1.410156 1.941406 -1.726562 C 3.136719 -3.03125 4.230469 -4.445312 5.007812 -5.535156 C 5.394531 -1.515625 6.347656 0.492188 7.933594 0.847656 C 8.074219 0.847656 8.214844 0.882812 8.359375 0.882812 C 10.753906 0.882812 13.332031 -3.316406 15.058594 -6.910156 C 15.234375 -7.265625 15.09375 -7.652344 14.742188 -7.828125 Z M 14.742188 -7.828125 "/></g></g></g><g fill="#ff3131" fill-opacity="1"><g transform="translate(82.299909, 181.21452)"><g><path d="M 2.246094 0 L 6.5 0 L 6.5 -6.445312 L 13.292969 -6.445312 L 13.292969 -10.191406 L 6.5 -10.191406 L 6.5 -14.871094 L 13.988281 -14.871094 L 13.988281 -18.722656 L 2.246094 -18.722656 Z M 2.246094 0 "/></g></g></g><g fill="#004aad" fill-opacity="1"><g transform="translate(106.264751, 181.21452)"><g><path d="M 2.246094 0 L 14.683594 0 L 14.683594 -3.984375 L 6.5 -3.984375 L 6.5 -18.722656 L 2.246094 -18.722656 Z M 2.246094 0 "/></g></g></g><g fill="#000000" fill-opacity="1"><g transform="translate(130.475687, 181.21452)"><g><path d="M 11.125 0.375 C 16.984375 0.375 21.128906 -3.636719 21.128906 -9.359375 C 21.128906 -15.085938 16.984375 -19.097656 11.125 -19.097656 C 5.269531 -19.097656 1.148438 -15.085938 1.148438 -9.359375 C 1.148438 -3.636719 5.269531 0.375 11.125 0.375 Z M 5.484375 -9.359375 C 5.484375 -12.730469 7.808594 -15.058594 11.125 -15.058594 C 14.46875 -15.058594 16.769531 -12.730469 16.769531 -9.359375 C 16.769531 -5.992188 14.46875 -3.664062 11.125 -3.664062 C 7.808594 -3.664062 5.484375 -5.992188 5.484375 -9.359375 Z M 5.484375 -9.359375 "/></g></g></g><g fill="#ff6b00" fill-opacity="1"><g transform="translate(161.55381, 181.21452)"><g><path d="M 6.285156 0 L 10.484375 0 L 14.738281 -12.117188 L 18.988281 0 L 23.160156 0 L 29.207031 -18.722656 L 24.710938 -18.722656 L 22.921875 -13.023438 L 20.914062 -6.792969 L 18.75 -13.023438 L 16.742188 -18.722656 L 12.703125 -18.722656 L 10.699219 -13.023438 L 8.558594 -6.875 L 6.578125 -13.023438 L 4.789062 -18.722656 L 0.265625 -18.722656 Z M 6.285156 0 "/></g></g></g><g fill="#037d13" fill-opacity="1"><g transform="translate(199.827245, 181.21452)"><g><path d="M 2.246094 0 L 14.84375 0 L 14.84375 -3.609375 L 6.472656 -3.609375 L 6.472656 -7.703125 L 13.828125 -7.703125 L 13.828125 -11.257812 L 6.472656 -11.257812 L 6.472656 -15.136719 L 14.550781 -15.136719 L 14.550781 -18.722656 L 2.246094 -18.722656 Z M 2.246094 0 "/></g></g></g><g fill="#ff6b00" fill-opacity="1"><g transform="translate(224.835055, 181.21452)"><g><path d="M 2.246094 0 L 6.5 0 L 6.5 -5.832031 L 9.308594 -5.832031 L 12.648438 0 L 17.570312 0 L 13.695312 -6.5 C 15.941406 -7.488281 17.25 -9.519531 17.25 -12.277344 C 17.25 -16.261719 14.523438 -18.722656 10.242188 -18.722656 L 2.246094 -18.722656 Z M 6.445312 -9.414062 L 6.445312 -15.085938 L 9.683594 -15.085938 C 11.769531 -15.085938 12.945312 -14.066406 12.945312 -12.25 C 12.945312 -10.429688 11.769531 -9.414062 9.683594 -9.414062 Z M 6.445312 -9.414062 "/></g></g></g><path stroke-linecap="round" transform="matrix(0.75, 0, 0, 0.75, 76.708219, 186.397956)" fill="none" stroke-linejoin="miter" d="M 0.998417 1.000642 L 107.003632 1.000642 " stroke="#000000" stroke-width="2" stroke-opacity="1" stroke-miterlimit="4"/></svg>